<?xml version="1.0" encoding="utf-8"?>
<!-- Generator: Adobe Illustrator 23.1.1, SVG Export Plug-In . SVG Version: 6.00 Build 0)  -->
<svg version="1.1" id="Ebene_1" xmlns="http://www.w3.org/2000/svg" xmlns:xlink="http://www.w3.org/1999/xlink" x="0px" y="0px"
	 viewBox="0 0 575.2 170" style="enable-background:new 0 0 575.2 170;" xml:space="preserve">
<style type="text/css">
	.st0{fill:#FFFFFF;}
	.st1{clip-path:url(#SVGID_2_);}
</style>
<path class="st0" d="M200.1,145.2h4.4v-30.7h-4.4V145.2L200.1,145.2z M226.5,127.1l-10.2-12.6h-4.2v30.7h4.4v-23.9l9.5,11.9h0.8
	l9.4-11.9v23.9h4.4v-30.7h-4.1L226.5,127.1L226.5,127.1z M278,144.1c1.6-0.8,2.7-1.8,3.5-3c0.8-1.2,1.2-2.6,1.2-4.2
	c0-2-0.7-3.7-2-5.1c-1.3-1.4-3.1-2.3-5.4-2.8c3.1-1.3,4.7-3.5,4.7-6.5c0-1.6-0.4-2.9-1.1-4.1c-0.7-1.2-1.8-2.1-3.3-2.8
	c-1.4-0.7-3.4-1-5.9-1h-8v30.7h10.4C274.4,145.2,276.4,144.8,278,144.1L278,144.1z M275.5,122.9c0,1.4-0.5,2.6-1.5,3.5
	c-1,0.9-2.7,1.3-5,1.3h-2.9v-9.2h3.8C273.6,118.4,275.5,119.9,275.5,122.9L275.5,122.9L275.5,122.9z M275,132.2c1,0.4,1.8,1,2.3,1.7
	c0.5,0.8,0.8,1.6,0.8,2.6c0,0.9-0.3,1.8-0.8,2.5s-1.2,1.4-2.1,1.7c-0.9,0.4-2.5,0.6-4.9,0.6h-4.3v-9.7h4.1
	C272.4,131.6,274,131.8,275,132.2L275,132.2z M296.7,136.1l-9.2-21.6h-4.4l13.2,30.8h1l13-30.8h-4.4L296.7,136.1L296.7,136.1z
	 M324.1,145.2c2.7,0,4.6-0.1,5.5-0.2c1-0.2,2-0.5,3.2-0.9c2-0.7,3.7-1.9,5.2-3.3c1.5-1.4,2.6-3.1,3.4-4.9c0.8-1.9,1.2-3.8,1.2-5.9
	c0-2.9-0.7-5.5-2.2-8c-1.4-2.4-3.4-4.3-5.8-5.5c-2.4-1.3-5.7-1.9-9.9-1.9h-10.3v30.7H324.1L324.1,145.2z M328.9,118.7
	c1,0.2,2,0.5,3,1s2,1.1,2.8,1.9c2.2,2.1,3.3,4.8,3.3,8.1c0,3.4-1.1,6.1-3.3,8.3c-0.7,0.7-1.4,1.2-2.2,1.7c-0.8,0.5-1.8,0.8-3,1.1
	c-1.2,0.3-2.9,0.5-5.1,0.5h-5.6v-22.8h5.5C326.4,118.4,328,118.5,328.9,118.7L328.9,118.7z M377.9,135.7l-8.6-21.2h-4.2l-8.5,21.2
	l-8.5-21.2h-4.4l12.4,30.8h0.9l10.1-25l10,25h1l12.4-30.8h-4.4L377.9,135.7L377.9,135.7z"/>
<path class="st0" d="M209.9,91.1l-9-21.6h-4.3l12.8,30.8h1l12.6-30.8h-4.2L209.9,91.1L209.9,91.1z M226.6,100.2h17.3v-3.9h-13v-9.5
	h12.2v-3.9h-12.2v-9.4h12.6v-3.9h-16.9V100.2L226.6,100.2z M253.3,100.2V86.9h1.1c1.4,0,2.4,0.2,3,0.5c0.6,0.3,1.3,0.9,2,1.6
	c0.7,0.7,1.5,1.7,2.4,3l1.4,2.4l1.3,2.2l0.8,1.2c0.1,0.2,0.2,0.3,0.3,0.4l1.3,2h5.1l-1.6-2.2c-0.6-0.9-1.5-2.2-2.5-3.9
	c-1.6-2.8-2.9-4.7-3.8-5.8c-0.9-1.1-1.8-2-2.8-2.6c1.6-0.6,2.9-1.6,3.7-2.9c0.9-1.3,1.3-2.8,1.3-4.6c0-2.6-0.9-4.7-2.7-6.2
	c-1.8-1.5-4.2-2.3-7.2-2.3h-7.5v30.7H253.3L253.3,100.2z M259.1,73.8c0.9,0.3,1.6,0.9,2.1,1.7c0.5,0.8,0.7,1.7,0.7,2.6
	c0,1-0.2,1.9-0.7,2.6c-0.4,0.8-1.1,1.3-1.9,1.7c-0.8,0.4-2.3,0.6-4.4,0.6h-1.6v-9.7h1.3C256.7,73.3,258.2,73.4,259.1,73.8
	L259.1,73.8z M289.5,82.1l-9.9-12.6h-4v30.7h4.3V76.3l9.3,11.9h0.8l9.2-11.9v23.9h4.3V69.5h-4L289.5,82.1L289.5,82.1z M306.8,100.2
	h4.4l3.7-9.1h12.7l4,9.1h4.4l-13.3-30.9h-3L306.8,100.2L306.8,100.2z M316.6,87.2l4.5-11.1l4.8,11.1H316.6L316.6,87.2z M343.8,100.2
	V86.9h1.1c1.4,0,2.4,0.2,3,0.5c0.6,0.3,1.3,0.9,2,1.6c0.7,0.7,1.5,1.7,2.4,3l1.4,2.4l1.3,2.2l0.8,1.2c0.1,0.2,0.2,0.3,0.3,0.4l1.3,2
	h5.1l-1.6-2.2c-0.6-0.9-1.5-2.2-2.5-3.9c-1.6-2.8-2.9-4.7-3.8-5.8c-0.9-1.1-1.8-2-2.8-2.6c1.6-0.6,2.9-1.6,3.7-2.9
	c0.9-1.3,1.3-2.8,1.3-4.6c0-2.6-0.9-4.7-2.7-6.2c-1.8-1.5-4.2-2.3-7.2-2.3h-7.5v30.7H343.8L343.8,100.2z M349.6,73.8
	c0.9,0.3,1.6,0.9,2.1,1.7c0.5,0.8,0.7,1.7,0.7,2.6c0,1-0.2,1.9-0.7,2.6c-0.4,0.8-1.1,1.3-1.9,1.7c-0.8,0.4-2.3,0.6-4.4,0.6h-1.6
	v-9.7h1.3C347.2,73.3,348.7,73.4,349.6,73.8L349.6,73.8z M370.4,83.6v-14h-4.3v30.7h4.3V85.1l15.2,15.2h5.8l-16.1-16.1l12.9-14.6
	h-5.3L370.4,83.6L370.4,83.6z M392.1,73.4h10.2v26.8h4.3V73.4H417v-3.9h-24.9V73.4L392.1,73.4z M420.9,100.2h17.3v-3.9h-13v-9.5
	h12.2v-3.9h-12.2v-9.4h12.6v-3.9h-16.9V100.2L420.9,100.2z M447.6,100.2V86.9h1.1c1.4,0,2.4,0.2,3,0.5c0.6,0.3,1.3,0.9,2,1.6
	c0.7,0.7,1.5,1.7,2.4,3l1.4,2.4l1.3,2.2l0.8,1.2c0.1,0.2,0.2,0.3,0.3,0.4l1.3,2h5.1l-1.6-2.2c-0.6-0.9-1.5-2.2-2.5-3.9
	c-1.6-2.8-2.9-4.7-3.8-5.8c-0.9-1.1-1.8-2-2.8-2.6c1.6-0.6,2.9-1.6,3.7-2.9c0.9-1.3,1.3-2.8,1.3-4.6c0-2.6-0.9-4.7-2.7-6.2
	c-1.8-1.5-4.2-2.3-7.2-2.3h-7.5v30.7H447.6L447.6,100.2z M453.4,73.8c0.9,0.3,1.6,0.9,2.1,1.7c0.5,0.8,0.7,1.7,0.7,2.6
	c0,1-0.2,1.9-0.7,2.6c-0.4,0.8-1.1,1.3-1.9,1.7c-0.8,0.4-2.3,0.6-4.4,0.6h-1.6v-9.7h1.3C451,73.3,452.5,73.4,453.4,73.8L453.4,73.8z
	 M474.2,83.6v-14h-4.3v30.7h4.3V85.1l15.2,15.2h5.8l-16.1-16.1L492,69.5h-5.3L474.2,83.6L474.2,83.6z M503.1,100.2V86.9h1.1
	c1.4,0,2.4,0.2,3,0.5c0.6,0.3,1.3,0.9,2,1.6c0.7,0.7,1.5,1.7,2.4,3l1.4,2.4l1.3,2.2l0.8,1.2c0.1,0.2,0.2,0.3,0.3,0.4l1.3,2h5.1
	l-1.6-2.2c-0.6-0.9-1.5-2.2-2.5-3.9c-1.6-2.8-2.9-4.7-3.8-5.8c-0.9-1.1-1.8-2-2.8-2.6c1.6-0.6,2.9-1.6,3.7-2.9
	c0.9-1.3,1.3-2.8,1.3-4.6c0-2.6-0.9-4.7-2.7-6.2c-1.8-1.5-4.2-2.3-7.2-2.3h-7.5v30.7H503.1L503.1,100.2z M508.8,73.8
	c0.9,0.3,1.6,0.9,2.1,1.7c0.5,0.8,0.7,1.7,0.7,2.6c0,1-0.2,1.9-0.7,2.6c-0.4,0.8-1.1,1.3-1.9,1.7c-0.8,0.4-2.3,0.6-4.4,0.6h-1.6
	v-9.7h1.3C506.4,73.3,507.9,73.4,508.8,73.8L508.8,73.8z M525.4,100.2h17.3v-3.9h-13v-9.5h12.2v-3.9h-12.2v-9.4h12.6v-3.9h-16.9
	V100.2L525.4,100.2z M547.8,100.2h4.3V69.5h-4.3V100.2L547.8,100.2z M570.8,92.7c0,1.2-0.4,2.1-1.3,2.9c-0.9,0.8-2,1.1-3.3,1.1
	c-3,0-5.7-1.5-8-4.5v5.6c2.4,1.9,5.1,2.8,8,2.8c2.6,0,4.6-0.8,6.2-2.3c1.6-1.5,2.4-3.5,2.4-6c0-3.5-1.8-6.3-5.4-8.5l-3.3-2
	c-1.5-0.9-2.5-1.7-3.2-2.5c-0.7-0.8-1-1.7-1-2.6c0-1,0.4-1.9,1.3-2.5c0.9-0.7,2-1,3.4-1c2.5,0,4.8,1.1,6.9,3.2v-5
	c-2.1-1.4-4.4-2.2-6.8-2.2c-2.6,0-4.7,0.8-6.3,2.3c-1.6,1.5-2.4,3.5-2.4,5.9c0,1.6,0.4,3,1.3,4.3c0.9,1.2,2.3,2.5,4.3,3.8l3.2,2
	C569.5,89,570.8,90.8,570.8,92.7L570.8,92.7L570.8,92.7z"/>
<path class="st0" d="M203.1,28.6c-3,3-4.5,6.8-4.5,11.4c0,4.5,1.5,8.2,4.5,11.2c3,3,6.7,4.4,11.2,4.4c4.7,0,8.6-1.5,11.7-4.4
	c3.1-3,4.6-6.7,4.6-11.2c0-4.5-1.5-8.3-4.6-11.3c-3.1-3-6.9-4.5-11.5-4.5C210,24.1,206.2,25.6,203.1,28.6L203.1,28.6z M222.9,31.6
	c2.2,2.2,3.3,5,3.3,8.2c0,3.3-1.1,6.1-3.3,8.4c-2.2,2.2-5,3.4-8.3,3.4c-3.3,0-6.1-1.1-8.3-3.3c-2.2-2.2-3.3-5-3.3-8.3
	c0-3.4,1.1-6.2,3.3-8.4c2.2-2.2,5-3.3,8.4-3.3C218,28.3,220.7,29.4,222.9,31.6L222.9,31.6z M259.8,48.4l-20.1-23.8h-3.5v30.7h4V31.6
	l19.9,23.6h3.7V24.5h-4V48.4L259.8,48.4z M270.8,55.2h17.7v-4H275V24.5h-4.3V55.2L270.8,55.2z M292.2,55.2h4.3V24.5h-4.3V55.2
	L292.2,55.2z M327.1,48.4l-20.1-23.8h-3.5v30.7h4V31.6l19.9,23.6h3.7V24.5h-4.1V48.4L327.1,48.4z M338.2,55.2h17.3v-3.9h-13v-9.5
	h12.2v-3.9h-12.2v-9.4H355v-3.9h-16.9V55.2L338.2,55.2z M359,47.4h10.6v-4.3H359V47.4L359,47.4z"/>
<g>
	<defs>
		<path id="SVGID_1_" d="M169.7,153.4c0,9-7,16.3-15.7,16.3H15.4c-8.7,0-15.7-7.3-15.7-16.3V16c0-9,7-16.3,15.7-16.3H154
			c8.7,0,15.7,7.3,15.7,16.3V153.4L169.7,153.4z"/>
	</defs>
	<clipPath id="SVGID_2_">
		<use xlink:href="#SVGID_1_"  style="overflow:visible;"/>
	</clipPath>
	<g class="st1">
		<defs>
			<rect id="SVGID_3_" x="-0.3" y="-0.4" width="170.1" height="170.1"/>
		</defs>
		<clipPath id="SVGID_4_">
			<use xlink:href="#SVGID_3_"  style="overflow:visible;"/>
		</clipPath>
		<g style="clip-path:url(#SVGID_4_);">
			
				<image style="overflow:visible;" width="360" height="357" xlink:href="8A3B05395DA316AC.jpg"  transform="matrix(0.48 0 0 -0.48 -1.0942 170.4733)">
			</image>
		</g>
	</g>
</g>
<path class="st0" d="M116.8,77c20.4-26.9,29.7-48.6,23.2-54c-4.7-3.9-17.5,2.5-33.3,15.5c10-6.9,17.9-9.7,21.4-6.8
	c7.2,6-6.7,33.5-31,61.5c-24.3,28-49.9,44.9-57.1,39c-3.5-2.9-2-10.1,3.3-20.8c-10.6,17.3-14.9,30.6-10.2,34.5
	c7.9,6.5,39.1-16.6,68.6-50.5"/>
<path class="st0" d="M41.3,63.7c12.3,0,20,8.7,20,19.1c0,10-7.5,19.1-20.1,19.1c-12.1,0-19.8-9-19.8-19.1
	C21.4,72.5,29.3,63.7,41.3,63.7L41.3,63.7z M41.3,96.9c8.3,0,14.5-6,14.5-14.2c0-8.2-6.2-14.2-14.5-14.2c-8.3,0-14.4,6-14.4,14.2
	C26.9,90.9,33,96.9,41.3,96.9L41.3,96.9z"/>
<polygon class="st0" points="80.4,101.7 79.3,101.7 63.2,64.2 68.5,64.2 79.7,90.3 90.8,64.2 96.1,64.2 80.4,101.7 "/>
<polyline class="st0" points="112.4,80.9 133.4,101.4 126.1,101.4 107.2,83 107.2,101.4 101.8,101.4 101.8,64.2 107.2,64.2 
	107.2,81.2 "/>
</svg>
